<?xml version="1.0" encoding="utf-8"?>
<svg version="1.1" xmlns:xlink="http://www.w3.org/1999/xlink" width="12px" height="16px" xmlns="http://www.w3.org/2000/svg">
  <g transform="matrix(1 0 0 1 -183 -221 )">
    <path d="M 11.09375 2.41071428571429  C 11.6979166666667 3.23809523809524  12 4.14880952380952  12 5.14285714285714  C 12 6.45833333333333  11.4878472222222 7.60267857142857  10.4635416666667 8.57589285714286  C 9.43923611111111 9.54910714285714  8.17361111111111 10.1071428571429  6.66666666666667 10.25  L 6.66666666666667 12.5714285714286  L 9 12.5714285714286  C 9.09722222222222 12.5714285714286  9.17708333333333 12.5982142857143  9.23958333333333 12.6517857142857  C 9.30208333333333 12.7053571428571  9.33333333333333 12.7738095238095  9.33333333333333 12.8571428571429  L 9.33333333333333 13.4285714285714  C 9.33333333333333 13.5119047619048  9.30208333333333 13.5803571428571  9.23958333333333 13.6339285714286  C 9.17708333333333 13.6875  9.09722222222222 13.7142857142857  9 13.7142857142857  L 6.66666666666667 13.7142857142857  L 6.66666666666667 15.7142857142857  C 6.66666666666667 15.797619047619  6.63541666666667 15.8660714285714  6.57291666666667 15.9196428571429  C 6.51041666666667 15.9732142857143  6.43055555555556 16  6.33333333333333 16  L 5.66666666666667 16  C 5.56944444444445 16  5.48958333333333 15.9732142857143  5.42708333333333 15.9196428571429  C 5.36458333333333 15.8660714285714  5.33333333333333 15.797619047619  5.33333333333333 15.7142857142857  L 5.33333333333333 13.7142857142857  L 3 13.7142857142857  C 2.90277777777778 13.7142857142857  2.82291666666667 13.6875  2.76041666666667 13.6339285714286  C 2.69791666666667 13.5803571428571  2.66666666666667 13.5119047619048  2.66666666666667 13.4285714285714  L 2.66666666666667 12.8571428571429  C 2.66666666666667 12.7738095238095  2.69791666666667 12.7053571428571  2.76041666666667 12.6517857142857  C 2.82291666666667 12.5982142857143  2.90277777777778 12.5714285714286  3 12.5714285714286  L 5.33333333333333 12.5714285714286  L 5.33333333333333 10.25  C 4.29166666666667 10.1547619047619  3.34895833333333 9.84821428571428  2.50520833333333 9.33035714285714  C 1.66145833333333 8.8125  1.015625 8.14583333333333  0.567708333333333 7.33035714285714  C 0.119791666666667 6.51488095238095  -0.0625 5.64583333333333  0.0208333333333333 4.72321428571429  C 0.0972222222222222 3.92559523809524  0.376736111111111 3.18452380952381  0.859375 2.5  C 1.34201388888889 1.81547619047619  1.97395833333333 1.25595238095238  2.75520833333333 0.821428571428571  C 3.53645833333333 0.386904761904761  4.38888888888889 0.125  5.3125 0.0357142857142865  C 6.49305555555556 -0.0773809523809561  7.60069444444444 0.0833333333333304  8.63541666666667 0.517857142857142  C 9.67013888888889 0.952380952380951  10.4895833333333 1.58333333333333  11.09375 2.41071428571429  Z M 2.703125 2.31696428571429  C 1.78993055555556 3.09970238095238  1.33333333333333 4.04166666666667  1.33333333333333 5.14285714285714  C 1.33333333333333 6.24404761904762  1.78993055555556 7.1860119047619  2.703125 7.96875  C 3.61631944444444 8.75148809523809  4.71527777777778 9.14285714285714  6 9.14285714285714  C 7.28472222222222 9.14285714285714  8.38368055555556 8.75148809523809  9.296875 7.96875  C 10.2100694444444 7.1860119047619  10.6666666666667 6.24404761904762  10.6666666666667 5.14285714285714  C 10.6666666666667 4.04166666666667  10.2100694444444 3.09970238095238  9.296875 2.31696428571429  C 8.38368055555556 1.53422619047619  7.28472222222222 1.14285714285714  6 1.14285714285714  C 4.71527777777778 1.14285714285714  3.61631944444444 1.53422619047619  2.703125 2.31696428571429  Z " fill-rule="nonzero" fill="#aaaaaa" stroke="none" transform="matrix(1 0 0 1 183 221 )" />
  </g>
</svg>