<?xml version="1.0" encoding="utf-8"?>
<svg version="1.1" xmlns:xlink="http://www.w3.org/1999/xlink" width="48px" height="48px" xmlns="http://www.w3.org/2000/svg">
  <g transform="matrix(1 0 0 1 -131 -390 )">
    <path d="M 155 391  C 167.88 391  178 401.12  178 414  C 178 426.88  167.88 437  155 437  C 142.12 437  132 426.88  132 414  C 132 401.12  142.12 391  155 391  Z " fill-rule="nonzero" fill="#ffffff" stroke="none" />
    <path d="M 155 391  C 167.88 391  178 401.12  178 414  C 178 426.88  167.88 437  155 437  C 142.12 437  132 426.88  132 414  C 132 401.12  142.12 391  155 391  Z " stroke-width="2" stroke="#3399ff" fill="none" />
  </g>
</svg>