<?xml version="1.0" encoding="utf-8"?>
<svg version="1.1" xmlns:xlink="http://www.w3.org/1999/xlink" width="48px" height="50px" xmlns="http://www.w3.org/2000/svg">
  <g transform="matrix(1 0 0 1 -614 -177 )">
    <path d="M 638 180  C 649.76 180  659 189.68  659 202  C 659 214.32  649.76 224  638 224  C 626.24 224  617 214.32  617 202  C 617 189.68  626.24 180  638 180  Z " fill-rule="nonzero" fill="#ffffff" stroke="none" />
    <path d="M 638 179  C 650.32 179  660 189.12  660 202  C 660 214.88  650.32 225  638 225  C 625.68 225  616 214.88  616 202  C 616 189.12  625.68 179  638 179  Z " stroke-width="4" stroke="#0079fe" fill="none" />
  </g>
</svg>