<?xml version="1.0" encoding="utf-8"?>
<svg version="1.1" xmlns:xlink="http://www.w3.org/1999/xlink" width="17px" height="32px" xmlns="http://www.w3.org/2000/svg">
  <g transform="matrix(1 0 0 1 -1076 -1003 )">
    <path d="M 16.4392361111111 14.59375  C 16.8130787037037 14.9895833333333  17 15.4583333333333  17 16  C 17 16.5416666666667  16.8130787037037 17.0104166666667  16.4392361111111 17.40625  L 3.21701388888889 31.40625  C 2.8431712962963 31.8020833333333  2.40046296296296 32  1.88888888888889 32  C 1.37731481481482 32  0.934606481481482 31.8020833333333  0.560763888888889 31.40625  C 0.186921296296296 31.0104166666667  0 30.5416666666667  0 30  L 0 2  C 0 1.45833333333333  0.186921296296296 0.989583333333329  0.560763888888889 0.59375  C 0.934606481481482 0.197916666666664  1.37731481481482 0  1.88888888888889 0  C 2.40046296296296 0  2.8431712962963 0.197916666666664  3.21701388888889 0.59375  L 16.4392361111111 14.59375  Z " fill-rule="nonzero" fill="#333333" stroke="none" transform="matrix(1 0 0 1 1076 1003 )" />
  </g>
</svg>