<?xml version="1.0" encoding="utf-8"?>
<svg version="1.1" xmlns:xlink="http://www.w3.org/1999/xlink" width="80px" height="30px" xmlns="http://www.w3.org/2000/svg">
  <g transform="matrix(1 0 0 1 -528 -485 )">
    <path d="M 529 488  A 2 2 0 0 1 531 486 L 605 486  A 2 2 0 0 1 607 488 L 607 512  A 2 2 0 0 1 605 514 L 531 514  A 2 2 0 0 1 529 512 L 529 488  Z " fill-rule="nonzero" fill="#ffffff" stroke="none" />
    <path d="M 528.5 488  A 2.5 2.5 0 0 1 531 485.5 L 605 485.5  A 2.5 2.5 0 0 1 607.5 488 L 607.5 512  A 2.5 2.5 0 0 1 605 514.5 L 531 514.5  A 2.5 2.5 0 0 1 528.5 512 L 528.5 488  Z " stroke-width="1" stroke="#d9001b" fill="none" stroke-opacity="0.635294117647059" />
  </g>
</svg>