<?xml version="1.0" encoding="utf-8"?>
<svg version="1.1" xmlns:xlink="http://www.w3.org/1999/xlink" width="80px" height="29px" xmlns="http://www.w3.org/2000/svg">
  <g transform="matrix(1 0 0 1 -486 -365 )">
    <path d="M 487 368  A 2 2 0 0 1 489 366 L 563 366  A 2 2 0 0 1 565 368 L 565 391  A 2 2 0 0 1 563 393 L 489 393  A 2 2 0 0 1 487 391 L 487 368  Z " fill-rule="nonzero" fill="#ffffff" stroke="none" />
    <path d="M 486.5 368  A 2.5 2.5 0 0 1 489 365.5 L 563 365.5  A 2.5 2.5 0 0 1 565.5 368 L 565.5 391  A 2.5 2.5 0 0 1 563 393.5 L 489 393.5  A 2.5 2.5 0 0 1 486.5 391 L 486.5 368  Z " stroke-width="1" stroke="#d9001b" fill="none" stroke-opacity="0.635294117647059" />
  </g>
</svg>