<?xml version="1.0" encoding="utf-8"?>
<svg version="1.1" xmlns:xlink="http://www.w3.org/1999/xlink" width="300px" height="50px" xmlns="http://www.w3.org/2000/svg">
  <g transform="matrix(1 0 0 1 -480 -89 )">
    <path d="M 480.5 92  A 2.5 2.5 0 0 1 483 89.5 L 777 89.5  A 2.5 2.5 0 0 1 779.5 92 L 779.5 136  A 2.5 2.5 0 0 1 777 138.5 L 483 138.5  A 2.5 2.5 0 0 1 480.5 136 L 480.5 92  Z " fill-rule="nonzero" fill="#ffffff" stroke="none" />
    <path d="M 480.5 92  A 2.5 2.5 0 0 1 483 89.5 L 777 89.5  A 2.5 2.5 0 0 1 779.5 92 L 779.5 136  A 2.5 2.5 0 0 1 777 138.5 L 483 138.5  A 2.5 2.5 0 0 1 480.5 136 L 480.5 92  Z " stroke-width="1" stroke="#0079fe" fill="none" />
  </g>
</svg>