<?xml version="1.0" encoding="utf-8"?>
<svg version="1.1" xmlns:xlink="http://www.w3.org/1999/xlink" width="306px" height="56px" xmlns="http://www.w3.org/2000/svg">
  <defs>
    <filter x="477px" y="86px" width="306px" height="56px" filterUnits="userSpaceOnUse" id="filter3">
      <feOffset dx="0" dy="0" in="SourceAlpha" result="shadowOffsetInner" />
      <feGaussianBlur stdDeviation="1.5" in="shadowOffsetInner" result="shadowGaussian" />
      <feComposite in2="shadowGaussian" operator="atop" in="SourceAlpha" result="shadowComposite" />
      <feColorMatrix type="matrix" values="0 0 0 0 0  0 0 0 0 0.474509803921569  0 0 0 0 0.996078431372549  0 0 0 0.8 0  " in="shadowComposite" />
    </filter>
    <g id="widget4">
      <path d="M 480.5 92  A 2.5 2.5 0 0 1 483 89.5 L 777 89.5  A 2.5 2.5 0 0 1 779.5 92 L 779.5 136  A 2.5 2.5 0 0 1 777 138.5 L 483 138.5  A 2.5 2.5 0 0 1 480.5 136 L 480.5 92  Z " fill-rule="nonzero" fill="#ffffff" stroke="none" />
      <path d="M 480.5 92  A 2.5 2.5 0 0 1 483 89.5 L 777 89.5  A 2.5 2.5 0 0 1 779.5 92 L 779.5 136  A 2.5 2.5 0 0 1 777 138.5 L 483 138.5  A 2.5 2.5 0 0 1 480.5 136 L 480.5 92  Z " stroke-width="1" stroke="#0079fe" fill="none" />
    </g>
  </defs>
  <g transform="matrix(1 0 0 1 -477 -86 )">
    <use xlink:href="#widget4" filter="url(#filter3)" />
    <use xlink:href="#widget4" />
  </g>
</svg>