<?xml version="1.0" encoding="utf-8"?>
<svg version="1.1" xmlns:xlink="http://www.w3.org/1999/xlink" width="84px" height="80px" xmlns="http://www.w3.org/2000/svg">
  <g transform="matrix(1 0 0 1 -241 -509 )">
    <path d="M 279.331600339409 509.654561036586  C 280.551321055017 509.551460396608  281.775326147724 509.5  283 509.5  C 305.906009999232 509.5  324.5 527.171602744783  324.5 549  C 324.5 570.669337628227  306.176004859508 588.242239665917  283.500043593269 588.497190261365  L 283.5 549  A 0.5 0.5 0 0 0 283.497213676891 548.947287956668 L 279.331600339409 509.654561036586  Z " fill-rule="nonzero" fill="#0096fa" stroke="none" />
    <path d="M 279.331600339409 509.654561036586  C 280.551321055017 509.551460396608  281.775326147724 509.5  283 509.5  C 305.906009999232 509.5  324.5 527.171602744783  324.5 549  C 324.5 570.669337628227  306.176004859508 588.242239665917  283.500043593269 588.497190261365  L 283.5 549  A 0.5 0.5 0 0 0 283.497213676891 548.947287956668 L 279.331600339409 509.654561036586  Z " stroke-width="1" stroke="#ffffff" fill="none" />
  </g>
</svg>