<?xml version="1.0" encoding="utf-8"?>
<svg version="1.1" xmlns:xlink="http://www.w3.org/1999/xlink" width="84px" height="80px" xmlns="http://www.w3.org/2000/svg">
  <g transform="matrix(1 0 0 1 -596 -509 )">
    <path d="M 634.331600339409 509.654561036586  C 635.551321055017 509.551460396608  636.775326147724 509.5  638 509.5  C 660.906009999232 509.5  679.5 527.171602744783  679.5 549  C 679.5 570.828397255217  660.906009999232 588.5  638 588.5  C 632.518842665822 588.5  627.092681364767 587.468936375567  622.036248225419 585.461134904523  L 638.455468005801 549.206273836664  A 0.5 0.5 0 0 0 638.497213676891 548.947287956668 L 634.331600339409 509.654561036586  Z " fill-rule="nonzero" fill="#0096fa" stroke="none" />
    <path d="M 634.331600339409 509.654561036586  C 635.551321055017 509.551460396608  636.775326147724 509.5  638 509.5  C 660.906009999232 509.5  679.5 527.171602744783  679.5 549  C 679.5 570.828397255217  660.906009999232 588.5  638 588.5  C 632.518842665822 588.5  627.092681364767 587.468936375567  622.036248225419 585.461134904523  L 638.455468005801 549.206273836664  A 0.5 0.5 0 0 0 638.497213676891 548.947287956668 L 634.331600339409 509.654561036586  Z " stroke-width="1" stroke="#ffffff" fill="none" />
  </g>
</svg>