<?xml version="1.0" encoding="utf-8"?>
<svg version="1.1" xmlns:xlink="http://www.w3.org/1999/xlink" width="80px" height="80px" xmlns="http://www.w3.org/2000/svg">
  <g transform="matrix(1 0 0 1 -30 -755 )">
    <path d="M 70 755  C 92.4 755  110 772.6  110 795  C 110 817.4  92.4 835  70 835  C 47.6 835  30 817.4  30 795  C 30 772.6  47.6 755  70 755  Z " fill-rule="nonzero" fill="#ffffff" stroke="none" />
    <path d="M 70 755.5  C 92.12 755.5  109.5 772.88  109.5 795  C 109.5 817.12  92.12 834.5  70 834.5  C 47.88 834.5  30.5 817.12  30.5 795  C 30.5 772.88  47.88 755.5  70 755.5  Z " stroke-width="1" stroke="#ffffff" fill="none" />
  </g>
</svg>