<?xml version="1.0" encoding="utf-8"?>
<svg version="1.1" xmlns:xlink="http://www.w3.org/1999/xlink" width="100px" height="100px" xmlns="http://www.w3.org/2000/svg">
  <g transform="matrix(1 0 0 1 -20 -745 )">
    <path d="M 70 745  C 98 745  120 767  120 795  C 120 823  98 845  70 845  C 42 845  20 823  20 795  C 20 767  42 745  70 745  Z " fill-rule="nonzero" fill="#e9e9e9" stroke="none" />
    <path d="M 70 745.5  C 97.72 745.5  119.5 767.28  119.5 795  C 119.5 822.72  97.72 844.5  70 844.5  C 42.28 844.5  20.5 822.72  20.5 795  C 20.5 767.28  42.28 745.5  70 745.5  Z " stroke-width="1" stroke="#ffffff" fill="none" />
  </g>
</svg>