<?xml version="1.0" encoding="utf-8"?>
<svg version="1.1" xmlns:xlink="http://www.w3.org/1999/xlink" width="16px" height="16px" viewBox="560 718  16 16" xmlns="http://www.w3.org/2000/svg">
  <path d="M 568 718  C 572.48 718  576 721.52  576 726  C 576 730.48  572.48 734  568 734  C 563.52 734  560 730.48  560 726  C 560 721.52  563.52 718  568 718  Z " fill-rule="nonzero" fill="#f0f0f0" stroke="none" />
  <path d="M 568 718.5  C 572.2 718.5  575.5 721.8  575.5 726  C 575.5 730.2  572.2 733.5  568 733.5  C 563.8 733.5  560.5 730.2  560.5 726  C 560.5 721.8  563.8 718.5  568 718.5  Z " stroke-width="1" stroke="#8c8c8c" fill="none" />
  <path d="M 568 730  C 565.76 730  564 728.24  564 726  C 564 723.76  565.76 722  568 722  C 570.24 722  572 723.76  572 726  C 572 728.24  570.24 730  568 730  " fill-rule="nonzero" fill="#8c8c8c" stroke="none" />
</svg>