<?xml version="1.0" encoding="utf-8"?>
<svg version="1.1" xmlns:xlink="http://www.w3.org/1999/xlink" width="16px" height="16px" viewBox="507 718  16 16" xmlns="http://www.w3.org/2000/svg">
  <path d="M 515 718  C 519.48 718  523 721.52  523 726  C 523 730.48  519.48 734  515 734  C 510.52 734  507 730.48  507 726  C 507 721.52  510.52 718  515 718  Z " fill-rule="nonzero" fill="#ffffff" stroke="none" />
  <path d="M 515 718.5  C 519.2 718.5  522.5 721.8  522.5 726  C 522.5 730.2  519.2 733.5  515 733.5  C 510.8 733.5  507.5 730.2  507.5 726  C 507.5 721.8  510.8 718.5  515 718.5  Z " stroke-width="1" stroke="#8c8c8c" fill="none" />
  <path d="M 515 730  C 512.76 730  511 728.24  511 726  C 511 723.76  512.76 722  515 722  C 517.24 722  519 723.76  519 726  C 519 728.24  517.24 730  515 730  " fill-rule="nonzero" fill="#8c8c8c" stroke="none" />
</svg>