<?xml version="1.0" encoding="utf-8"?>
<svg version="1.1" xmlns:xlink="http://www.w3.org/1999/xlink" width="30px" height="30px" xmlns="http://www.w3.org/2000/svg">
  <g transform="matrix(1 0 0 1 -202 -163 )">
    <path d="M 217 164  C 224.84 164  231 170.16  231 178  C 231 185.84  224.84 192  217 192  C 209.16 192  203 185.84  203 178  C 203 170.16  209.16 164  217 164  Z " fill-rule="nonzero" fill="#0079fe" stroke="none" />
    <path d="M 217 164  C 224.84 164  231 170.16  231 178  C 231 185.84  224.84 192  217 192  C 209.16 192  203 185.84  203 178  C 203 170.16  209.16 164  217 164  Z " stroke-width="2" stroke="#0079fe" fill="none" />
  </g>
</svg>