<?xml version="1.0" encoding="utf-8"?>
<svg version="1.1" xmlns:xlink="http://www.w3.org/1999/xlink" width="30px" height="30px" xmlns="http://www.w3.org/2000/svg">
  <g transform="matrix(1 0 0 1 -782 -163 )">
    <path d="M 797 164  C 804.84 164  811 170.16  811 178  C 811 185.84  804.84 192  797 192  C 789.16 192  783 185.84  783 178  C 783 170.16  789.16 164  797 164  Z " fill-rule="nonzero" fill="#ffffff" stroke="none" />
    <path d="M 797 164  C 804.84 164  811 170.16  811 178  C 811 185.84  804.84 192  797 192  C 789.16 192  783 185.84  783 178  C 783 170.16  789.16 164  797 164  Z " stroke-width="2" stroke="#e4e4e4" fill="none" />
  </g>
</svg>