<?xml version="1.0" encoding="utf-8"?>
<svg version="1.1" xmlns:xlink="http://www.w3.org/1999/xlink" width="233px" height="38px" xmlns="http://www.w3.org/2000/svg">
  <defs>
    <filter x="504px" y="671px" width="233px" height="38px" filterUnits="userSpaceOnUse" id="filter9">
      <feOffset dx="0" dy="0" in="SourceAlpha" result="shadowOffsetInner" />
      <feGaussianBlur stdDeviation="1.5" in="shadowOffsetInner" result="shadowGaussian" />
      <feComposite in2="shadowGaussian" operator="atop" in="SourceAlpha" result="shadowComposite" />
      <feColorMatrix type="matrix" values="0 0 0 0 0  0 0 0 0 0.474509803921569  0 0 0 0 0.996078431372549  0 0 0 0.8 0  " in="shadowComposite" />
    </filter>
    <g id="widget10">
      <path d="M 507.5 677  A 2.5 2.5 0 0 1 510 674.5 L 731 674.5  A 2.5 2.5 0 0 1 733.5 677 L 733.5 703  A 2.5 2.5 0 0 1 731 705.5 L 510 705.5  A 2.5 2.5 0 0 1 507.5 703 L 507.5 677  Z " fill-rule="nonzero" fill="#ffffff" stroke="none" />
      <path d="M 507.5 677  A 2.5 2.5 0 0 1 510 674.5 L 731 674.5  A 2.5 2.5 0 0 1 733.5 677 L 733.5 703  A 2.5 2.5 0 0 1 731 705.5 L 510 705.5  A 2.5 2.5 0 0 1 507.5 703 L 507.5 677  Z " stroke-width="1" stroke="#0079fe" fill="none" />
    </g>
  </defs>
  <g transform="matrix(1 0 0 1 -504 -671 )">
    <use xlink:href="#widget10" filter="url(#filter9)" />
    <use xlink:href="#widget10" />
  </g>
</svg>