<?xml version="1.0" encoding="utf-8"?>
<svg version="1.1" xmlns:xlink="http://www.w3.org/1999/xlink" width="233px" height="44px" xmlns="http://www.w3.org/2000/svg">
  <defs>
    <filter x="504px" y="254px" width="233px" height="44px" filterUnits="userSpaceOnUse" id="filter6">
      <feOffset dx="0" dy="0" in="SourceAlpha" result="shadowOffsetInner" />
      <feGaussianBlur stdDeviation="1.5" in="shadowOffsetInner" result="shadowGaussian" />
      <feComposite in2="shadowGaussian" operator="atop" in="SourceAlpha" result="shadowComposite" />
      <feColorMatrix type="matrix" values="0 0 0 0 0  0 0 0 0 0.474509803921569  0 0 0 0 0.996078431372549  0 0 0 0.8 0  " in="shadowComposite" />
    </filter>
    <g id="widget7">
      <path d="M 507.5 260  A 2.5 2.5 0 0 1 510 257.5 L 731 257.5  A 2.5 2.5 0 0 1 733.5 260 L 733.5 292  A 2.5 2.5 0 0 1 731 294.5 L 510 294.5  A 2.5 2.5 0 0 1 507.5 292 L 507.5 260  Z " fill-rule="nonzero" fill="#ffffff" stroke="none" />
      <path d="M 507.5 260  A 2.5 2.5 0 0 1 510 257.5 L 731 257.5  A 2.5 2.5 0 0 1 733.5 260 L 733.5 292  A 2.5 2.5 0 0 1 731 294.5 L 510 294.5  A 2.5 2.5 0 0 1 507.5 292 L 507.5 260  Z " stroke-width="1" stroke="#0079fe" fill="none" />
    </g>
  </defs>
  <g transform="matrix(1 0 0 1 -504 -254 )">
    <use xlink:href="#widget7" filter="url(#filter6)" />
    <use xlink:href="#widget7" />
  </g>
</svg>