<?xml version="1.0" encoding="utf-8"?>
<svg version="1.1" xmlns:xlink="http://www.w3.org/1999/xlink" width="72px" height="18px" xmlns="http://www.w3.org/2000/svg">
  <defs>
    <mask fill="white" id="clip8">
      <path d="M 0 13.7142857142857  L 0 4.28571428571429  C 0 1.88571428571428  2.40000000000005 0  5.45454545454546 0  L 20.8181818181835 0  L 43.5454545454529 0  L 66.5454545454545 0  C 69.6 0  72 1.88571428571428  72 4.28571428571429  L 72 13.7142857142857  C 72 16.1142857142857  69.6 18  66.5454545454545 18  L 5.45454545454546 18  C 2.40000000000005 18  0 16.1142857142857  0 13.7142857142857  Z " fill-rule="evenodd" />
    </mask>
  </defs>
  <g transform="matrix(1 0 0 1 -507 -316 )">
    <path d="M 0 13.7142857142857  L 0 4.28571428571429  C 0 1.88571428571428  2.40000000000005 0  5.45454545454546 0  L 20.8181818181835 0  L 43.5454545454529 0  L 66.5454545454545 0  C 69.6 0  72 1.88571428571428  72 4.28571428571429  L 72 13.7142857142857  C 72 16.1142857142857  69.6 18  66.5454545454545 18  L 5.45454545454546 18  C 2.40000000000005 18  0 16.1142857142857  0 13.7142857142857  Z " fill-rule="nonzero" fill="#ffffff" stroke="none" transform="matrix(1 0 0 1 507 316 )" />
    <path d="M 0 13.7142857142857  L 0 4.28571428571429  C 0 1.88571428571428  2.40000000000005 0  5.45454545454546 0  L 20.8181818181835 0  L 43.5454545454529 0  L 66.5454545454545 0  C 69.6 0  72 1.88571428571428  72 4.28571428571429  L 72 13.7142857142857  C 72 16.1142857142857  69.6 18  66.5454545454545 18  L 5.45454545454546 18  C 2.40000000000005 18  0 16.1142857142857  0 13.7142857142857  Z " stroke-width="2" stroke="#797979" fill="none" transform="matrix(1 0 0 1 507 316 )" mask="url(#clip8)" />
  </g>
</svg>