<?xml version="1.0" encoding="utf-8"?>
<svg version="1.1" xmlns:xlink="http://www.w3.org/1999/xlink" width="189px" height="30px" xmlns="http://www.w3.org/2000/svg">
  <g transform="matrix(1 0 0 1 -20 -90 )">
    <path d="M 21 105  A 14 14 0 0 1 35 91 L 194 91  A 14 14 0 0 1 208 105 A 14 14 0 0 1 194 119 L 35 119  A 14 14 0 0 1 21 105 Z " fill-rule="nonzero" fill="#ffffff" stroke="none" />
    <path d="M 20.5 105  A 14.5 14.5 0 0 1 35 90.5 L 194 90.5  A 14.5 14.5 0 0 1 208.5 105 A 14.5 14.5 0 0 1 194 119.5 L 35 119.5  A 14.5 14.5 0 0 1 20.5 105 Z " stroke-width="1" stroke="#e4e4e4" fill="none" stroke-opacity="0.698039215686274" />
  </g>
</svg>