<?xml version="1.0" encoding="utf-8"?>
<svg version="1.1" xmlns:xlink="http://www.w3.org/1999/xlink" width="195px" height="36px" xmlns="http://www.w3.org/2000/svg">
  <defs>
    <filter x="17px" y="87px" width="195px" height="36px" filterUnits="userSpaceOnUse" id="filter68">
      <feOffset dx="0" dy="0" in="SourceAlpha" result="shadowOffsetInner" />
      <feGaussianBlur stdDeviation="1.5" in="shadowOffsetInner" result="shadowGaussian" />
      <feComposite in2="shadowGaussian" operator="atop" in="SourceAlpha" result="shadowComposite" />
      <feColorMatrix type="matrix" values="0 0 0 0 0  0 0 0 0 0.474509803921569  0 0 0 0 0.996078431372549  0 0 0 0.8 0  " in="shadowComposite" />
    </filter>
    <g id="widget69">
      <path d="M 20.5 105  A 14.5 14.5 0 0 1 35 90.5 L 194 90.5  A 14.5 14.5 0 0 1 208.5 105 A 14.5 14.5 0 0 1 194 119.5 L 35 119.5  A 14.5 14.5 0 0 1 20.5 105 Z " fill-rule="nonzero" fill="#ffffff" stroke="none" />
      <path d="M 20.5 105  A 14.5 14.5 0 0 1 35 90.5 L 194 90.5  A 14.5 14.5 0 0 1 208.5 105 A 14.5 14.5 0 0 1 194 119.5 L 35 119.5  A 14.5 14.5 0 0 1 20.5 105 Z " stroke-width="1" stroke="#0079fe" fill="none" />
    </g>
  </defs>
  <g transform="matrix(1 0 0 1 -17 -87 )">
    <use xlink:href="#widget69" filter="url(#filter68)" />
    <use xlink:href="#widget69" />
  </g>
</svg>