<?xml version="1.0" encoding="utf-8"?>
<svg version="1.1" xmlns:xlink="http://www.w3.org/1999/xlink" width="16px" height="16px" viewBox="56 332  16 16" xmlns="http://www.w3.org/2000/svg">
  <path d="M 64 332  C 68.48 332  72 335.52  72 340  C 72 344.48  68.48 348  64 348  C 59.52 348  56 344.48  56 340  C 56 335.52  59.52 332  64 332  Z " fill-rule="nonzero" fill="#f0f0f0" stroke="none" />
  <path d="M 64 332.5  C 68.2 332.5  71.5 335.8  71.5 340  C 71.5 344.2  68.2 347.5  64 347.5  C 59.8 347.5  56.5 344.2  56.5 340  C 56.5 335.8  59.8 332.5  64 332.5  Z " stroke-width="1" stroke="#8c8c8c" fill="none" />
  <path d="M 64 344  C 61.76 344  60 342.24  60 340  C 60 337.76  61.76 336  64 336  C 66.24 336  68 337.76  68 340  C 68 342.24  66.24 344  64 344  " fill-rule="nonzero" fill="#8c8c8c" stroke="none" />
</svg>