<?xml version="1.0" encoding="utf-8"?>
<svg version="1.1" xmlns:xlink="http://www.w3.org/1999/xlink" width="16px" height="16px" viewBox="394 199  16 16" xmlns="http://www.w3.org/2000/svg">
  <path d="M 402 199  C 406.48 199  410 202.52  410 207  C 410 211.48  406.48 215  402 215  C 397.52 215  394 211.48  394 207  C 394 202.52  397.52 199  402 199  Z " fill-rule="nonzero" fill="#ffffff" stroke="none" />
  <path d="M 402 199.5  C 406.2 199.5  409.5 202.8  409.5 207  C 409.5 211.2  406.2 214.5  402 214.5  C 397.8 214.5  394.5 211.2  394.5 207  C 394.5 202.8  397.8 199.5  402 199.5  Z " stroke-width="1" stroke="#8c8c8c" fill="none" />
  <path d="M 402 211  C 399.76 211  398 209.24  398 207  C 398 204.76  399.76 203  402 203  C 404.24 203  406 204.76  406 207  C 406 209.24  404.24 211  402 211  " fill-rule="nonzero" fill="#8c8c8c" stroke="none" />
</svg>