<?xml version="1.0" encoding="utf-8"?>
<svg version="1.1" xmlns:xlink="http://www.w3.org/1999/xlink" width="16px" height="16px" viewBox="56 377  16 16" xmlns="http://www.w3.org/2000/svg">
  <path d="M 64 377  C 68.48 377  72 380.52  72 385  C 72 389.48  68.48 393  64 393  C 59.52 393  56 389.48  56 385  C 56 380.52  59.52 377  64 377  Z " fill-rule="nonzero" fill="#f0f0f0" stroke="none" />
  <path d="M 64 377.5  C 68.2 377.5  71.5 380.8  71.5 385  C 71.5 389.2  68.2 392.5  64 392.5  C 59.8 392.5  56.5 389.2  56.5 385  C 56.5 380.8  59.8 377.5  64 377.5  Z " stroke-width="1" stroke="#8c8c8c" fill="none" />
  <path d="M 64 389  C 61.76 389  60 387.24  60 385  C 60 382.76  61.76 381  64 381  C 66.24 381  68 382.76  68 385  C 68 387.24  66.24 389  64 389  " fill-rule="nonzero" fill="#8c8c8c" stroke="none" />
</svg>