<?xml version="1.0" encoding="utf-8"?>
<svg version="1.1" xmlns:xlink="http://www.w3.org/1999/xlink" width="16px" height="16px" viewBox="59 199  16 16" xmlns="http://www.w3.org/2000/svg">
  <path d="M 67 199  C 71.48 199  75 202.52  75 207  C 75 211.48  71.48 215  67 215  C 62.52 215  59 211.48  59 207  C 59 202.52  62.52 199  67 199  Z " fill-rule="nonzero" fill="#f0f0f0" stroke="none" />
  <path d="M 67 199.5  C 71.2 199.5  74.5 202.8  74.5 207  C 74.5 211.2  71.2 214.5  67 214.5  C 62.8 214.5  59.5 211.2  59.5 207  C 59.5 202.8  62.8 199.5  67 199.5  Z " stroke-width="1" stroke="#8c8c8c" fill="none" />
  <path d="M 67 211  C 64.76 211  63 209.24  63 207  C 63 204.76  64.76 203  67 203  C 69.24 203  71 204.76  71 207  C 71 209.24  69.24 211  67 211  " fill-rule="nonzero" fill="#8c8c8c" stroke="none" />
</svg>