<?xml version="1.0" encoding="utf-8"?>
<svg version="1.1" xmlns:xlink="http://www.w3.org/1999/xlink" width="16px" height="16px" viewBox="276 459  16 16" xmlns="http://www.w3.org/2000/svg">
  <path d="M 284 459  C 288.48 459  292 462.52  292 467  C 292 471.48  288.48 475  284 475  C 279.52 475  276 471.48  276 467  C 276 462.52  279.52 459  284 459  Z " fill-rule="nonzero" fill="#f0f0f0" stroke="none" />
  <path d="M 284 459.5  C 288.2 459.5  291.5 462.8  291.5 467  C 291.5 471.2  288.2 474.5  284 474.5  C 279.8 474.5  276.5 471.2  276.5 467  C 276.5 462.8  279.8 459.5  284 459.5  Z " stroke-width="1" stroke="#8c8c8c" fill="none" />
  <path d="M 284 471  C 281.76 471  280 469.24  280 467  C 280 464.76  281.76 463  284 463  C 286.24 463  288 464.76  288 467  C 288 469.24  286.24 471  284 471  " fill-rule="nonzero" fill="#8c8c8c" stroke="none" />
</svg>