<?xml version="1.0" encoding="utf-8"?>
<svg version="1.1" xmlns:xlink="http://www.w3.org/1999/xlink" width="80px" height="31px" xmlns="http://www.w3.org/2000/svg">
  <g transform="matrix(1 0 0 1 -528 -767 )">
    <path d="M 529 770  A 2 2 0 0 1 531 768 L 605 768  A 2 2 0 0 1 607 770 L 607 795  A 2 2 0 0 1 605 797 L 531 797  A 2 2 0 0 1 529 795 L 529 770  Z " fill-rule="nonzero" fill="#ffffff" stroke="none" />
    <path d="M 528.5 770  A 2.5 2.5 0 0 1 531 767.5 L 605 767.5  A 2.5 2.5 0 0 1 607.5 770 L 607.5 795  A 2.5 2.5 0 0 1 605 797.5 L 531 797.5  A 2.5 2.5 0 0 1 528.5 795 L 528.5 770  Z " stroke-width="1" stroke="#d9001b" fill="none" stroke-opacity="0.635294117647059" />
  </g>
</svg>