<?xml version="1.0" encoding="utf-8"?>
<svg version="1.1" xmlns:xlink="http://www.w3.org/1999/xlink" width="16px" height="16px" viewBox="463 669  16 16" xmlns="http://www.w3.org/2000/svg">
  <path d="M 471 669  C 475.48 669  479 672.52  479 677  C 479 681.48  475.48 685  471 685  C 466.52 685  463 681.48  463 677  C 463 672.52  466.52 669  471 669  Z " fill-rule="nonzero" fill="#ffffff" stroke="none" />
  <path d="M 471 669.5  C 475.2 669.5  478.5 672.8  478.5 677  C 478.5 681.2  475.2 684.5  471 684.5  C 466.8 684.5  463.5 681.2  463.5 677  C 463.5 672.8  466.8 669.5  471 669.5  Z " stroke-width="1" stroke="#8c8c8c" fill="none" />
  <path d="M 471 681  C 468.76 681  467 679.24  467 677  C 467 674.76  468.76 673  471 673  C 473.24 673  475 674.76  475 677  C 475 679.24  473.24 681  471 681  " fill-rule="nonzero" fill="#8c8c8c" stroke="none" />
</svg>