<?xml version="1.0" encoding="utf-8"?>
<svg version="1.1" xmlns:xlink="http://www.w3.org/1999/xlink" width="16px" height="16px" viewBox="463 624  16 16" xmlns="http://www.w3.org/2000/svg">
  <path d="M 471 624  C 475.48 624  479 627.52  479 632  C 479 636.48  475.48 640  471 640  C 466.52 640  463 636.48  463 632  C 463 627.52  466.52 624  471 624  Z " fill-rule="nonzero" fill="#ffffff" stroke="none" />
  <path d="M 471 624.5  C 475.2 624.5  478.5 627.8  478.5 632  C 478.5 636.2  475.2 639.5  471 639.5  C 466.8 639.5  463.5 636.2  463.5 632  C 463.5 627.8  466.8 624.5  471 624.5  Z " stroke-width="1" stroke="#8c8c8c" fill="none" />
  <path d="M 471 636  C 468.76 636  467 634.24  467 632  C 467 629.76  468.76 628  471 628  C 473.24 628  475 629.76  475 632  C 475 634.24  473.24 636  471 636  " fill-rule="nonzero" fill="#8c8c8c" stroke="none" />
</svg>