<?xml version="1.0" encoding="utf-8"?>
<svg version="1.1" xmlns:xlink="http://www.w3.org/1999/xlink" width="16px" height="16px" viewBox="463 508  16 16" xmlns="http://www.w3.org/2000/svg">
  <path d="M 471 508  C 475.48 508  479 511.52  479 516  C 479 520.48  475.48 524  471 524  C 466.52 524  463 520.48  463 516  C 463 511.52  466.52 508  471 508  Z " fill-rule="nonzero" fill="#ffffff" stroke="none" />
  <path d="M 471 508.5  C 475.2 508.5  478.5 511.8  478.5 516  C 478.5 520.2  475.2 523.5  471 523.5  C 466.8 523.5  463.5 520.2  463.5 516  C 463.5 511.8  466.8 508.5  471 508.5  Z " stroke-width="1" stroke="#8c8c8c" fill="none" />
  <path d="M 471 520  C 468.76 520  467 518.24  467 516  C 467 513.76  468.76 512  471 512  C 473.24 512  475 513.76  475 516  C 475 518.24  473.24 520  471 520  " fill-rule="nonzero" fill="#8c8c8c" stroke="none" />
</svg>