<?xml version="1.0" encoding="utf-8"?>
<svg version="1.1" xmlns:xlink="http://www.w3.org/1999/xlink" width="16px" height="16px" viewBox="686 508  16 16" xmlns="http://www.w3.org/2000/svg">
  <path d="M 694 508  C 698.48 508  702 511.52  702 516  C 702 520.48  698.48 524  694 524  C 689.52 524  686 520.48  686 516  C 686 511.52  689.52 508  694 508  Z " fill-rule="nonzero" fill="#ffffff" stroke="none" />
  <path d="M 694 508.5  C 698.2 508.5  701.5 511.8  701.5 516  C 701.5 520.2  698.2 523.5  694 523.5  C 689.8 523.5  686.5 520.2  686.5 516  C 686.5 511.8  689.8 508.5  694 508.5  Z " stroke-width="1" stroke="#8c8c8c" fill="none" />
  <path d="M 694 520  C 691.76 520  690 518.24  690 516  C 690 513.76  691.76 512  694 512  C 696.24 512  698 513.76  698 516  C 698 518.24  696.24 520  694 520  " fill-rule="nonzero" fill="#8c8c8c" stroke="none" />
</svg>