<?xml version="1.0" encoding="utf-8"?>
<svg version="1.1" xmlns:xlink="http://www.w3.org/1999/xlink" width="30px" height="30px" xmlns="http://www.w3.org/2000/svg">
  <defs>
    <mask fill="white" id="clip11">
      <path d="M 0 15  C 0 6.59999999999999  6.60000000000002 0  15 0  C 20.5437474714417 0  25.3034863707632 2.87469809777451  27.899424463272 7.24430205863129  C 29.2369050716339 9.49561174152879  30 12.1437474714417  30 15  C 30 23.4  23.4 30  15 30  C 6.60000000000002 30  0 23.4  0 15  Z " fill-rule="evenodd" />
    </mask>
  </defs>
  <g transform="matrix(1 0 0 1 -492 -169 )">
    <path d="M 0 15  C 0 6.59999999999999  6.60000000000002 0  15 0  C 20.5437474714417 0  25.3034863707632 2.87469809777451  27.899424463272 7.24430205863129  C 29.2369050716339 9.49561174152879  30 12.1437474714417  30 15  C 30 23.4  23.4 30  15 30  C 6.60000000000002 30  0 23.4  0 15  Z " fill-rule="nonzero" fill="#ffffff" stroke="none" transform="matrix(1 0 0 1 492 169 )" />
    <path d="M 0 15  C 0 6.59999999999999  6.60000000000002 0  15 0  C 20.5437474714417 0  25.3034863707632 2.87469809777451  27.899424463272 7.24430205863129  C 29.2369050716339 9.49561174152879  30 12.1437474714417  30 15  C 30 23.4  23.4 30  15 30  C 6.60000000000002 30  0 23.4  0 15  Z " stroke-width="4" stroke="#e4e4e4" fill="none" transform="matrix(1 0 0 1 492 169 )" mask="url(#clip11)" />
  </g>
</svg>