<?xml version="1.0" encoding="utf-8"?>
<svg version="1.1" xmlns:xlink="http://www.w3.org/1999/xlink" width="16px" height="16px" viewBox="309 115  16 16" xmlns="http://www.w3.org/2000/svg">
  <path d="M 317 115  C 321.48 115  325 118.52  325 123  C 325 127.48  321.48 131  317 131  C 312.52 131  309 127.48  309 123  C 309 118.52  312.52 115  317 115  Z " fill-rule="nonzero" fill="#f0f0f0" stroke="none" />
  <path d="M 317 115.5  C 321.2 115.5  324.5 118.8  324.5 123  C 324.5 127.2  321.2 130.5  317 130.5  C 312.8 130.5  309.5 127.2  309.5 123  C 309.5 118.8  312.8 115.5  317 115.5  Z " stroke-width="1" stroke="#8c8c8c" fill="none" />
  <path d="M 317 127  C 314.76 127  313 125.24  313 123  C 313 120.76  314.76 119  317 119  C 319.24 119  321 120.76  321 123  C 321 125.24  319.24 127  317 127  " fill-rule="nonzero" fill="#8c8c8c" stroke="none" />
</svg>