<?xml version="1.0" encoding="utf-8"?>
<svg version="1.1" xmlns:xlink="http://www.w3.org/1999/xlink" width="180px" height="60px" xmlns="http://www.w3.org/2000/svg">
  <g transform="matrix(1 0 0 1 -901 -1085 )">
    <path d="M 901.5 1130.85849056604  C 901.5 1130.85849056604  901.5 1085.5  901.5 1085.5  C 901.5 1085.5  1080.5 1085.5  1080.5 1085.5  C 1080.5 1085.5  1080.5 1130.85849056604  1080.5 1130.85849056604  C 1080.5 1130.85849056604  1005.66237252681 1130.85849056604  1005.66237252681 1130.85849056604  C 1005.66237252681 1130.85849056604  991.016089150245 1143.65223914794  991.016089150245 1143.65223914794  C 991.016089150245 1143.65223914794  977.701286080638 1130.85849056604  977.701286080638 1130.85849056604  C 977.701286080638 1130.85849056604  901.5 1130.85849056604  901.5 1130.85849056604  Z " fill-rule="nonzero" fill="#ffffff" stroke="none" />
    <path d="M 901 1131.35849056604  C 901 1131.35849056604  901 1085  901 1085  C 901 1085  1081 1085  1081 1085  C 1081 1085  1081 1131.35849056604  1081 1131.35849056604  C 1081 1131.35849056604  1005.85 1131.35849056604  1005.85 1131.35849056604  C 1005.85 1131.35849056604  991 1144.33018867925  991 1144.33018867925  C 991 1144.33018867925  977.5 1131.35849056604  977.5 1131.35849056604  C 977.5 1131.35849056604  901 1131.35849056604  901 1131.35849056604  Z M 902 1130.35849056604  C 902 1130.35849056604  977.902572161277 1130.35849056604  977.902572161277 1130.35849056604  C 977.902572161277 1130.35849056604  991.03217830049 1142.97428961664  991.03217830049 1142.97428961664  C 991.03217830049 1142.97428961664  1005.47474505362 1130.35849056604  1005.47474505362 1130.35849056604  C 1005.47474505362 1130.35849056604  1080 1130.35849056604  1080 1130.35849056604  C 1080 1130.35849056604  1080 1086  1080 1086  C 1080 1086  902 1086  902 1086  C 902 1086  902 1130.35849056604  902 1130.35849056604  Z " fill-rule="nonzero" fill="#f04844" stroke="none" />
  </g>
</svg>